<svg id="Capa_1" enable-background="new 0 0 512 512" height="512" viewBox="0 0 512 512" width="512" xmlns="http://www.w3.org/2000/svg"><g><g><path d="m501.483 102.825c-58.263-52.485-121.789-77.079-164.82-88.467-46.274-12.248-78.725-12.299-80.663-12.293-1.952.018-34.393.047-80.663 12.293-43.031 11.388-106.557 35.982-164.82 88.467-11.608 10.455-13.891 27.528-5.43 40.593l229.983 355.136c4.615 7.126 12.44 11.381 20.93 11.381 8.49 0 16.315-4.255 20.93-11.381l229.982-355.137c8.462-13.066 6.178-30.137-5.429-40.592zm-184.471 306.196-11.581 17.882c-9.652-7.557-15.428-19.178-15.428-31.684 0-22.179 18.049-40.224 40.234-40.224 6.643 0 13.022 1.585 18.763 4.626zm40.174-62.038c-8.191-4.6-17.368-7.011-26.949-7.011-30.469 0-55.258 24.784-55.258 55.247 0 17.637 8.366 33.984 22.264 44.327l-32.924 50.841c-1.862 2.876-4.895 4.525-8.321 4.525-3.425 0-6.457-1.649-8.319-4.525l-86.663-133.824c7.64-7 13.215-16.048 15.967-26.08 1.097-4.001-1.256-8.134-5.257-9.231-4.002-1.1-8.134 1.256-9.232 5.256-1.776 6.475-5.172 12.391-9.802 17.203l-42.582-65.754c4.332-1.552 8.929-2.355 13.589-2.355 15.3 0 29.079 8.5 35.961 22.182 1.864 3.706 6.379 5.2 10.086 3.335 3.707-1.864 5.2-6.379 3.336-10.086-9.448-18.786-28.369-30.455-49.382-30.455-7.575 0-15.032 1.551-21.914 4.523l-30.699-47.406c42.261-40.629 89.18-60.087 121.578-69.295 36.485-10.371 63.035-10.363 63.293-10.372.14-.007.286-.003.425-.01.285-.012 28.789-1.314 66.183 8.394 33.182 8.614 80.23 27.891 118.602 70.885zm137.116-211.732-20.717 31.992c-23.457-24.66-51.043-44.866-82.159-60.109-3.724-1.826-8.225-.284-10.05 3.441-1.825 3.726-.284 8.226 3.441 10.051 30.606 14.993 57.617 35.025 80.367 59.589l-15.575 24.051c-40.487-43.828-89.216-63.627-123.803-72.534-38.186-9.834-66.969-8.863-69.977-8.728-2.88.003-29.668.33-66.72 10.789-33.676 9.506-82.217 29.513-126.322 71.083l-15.782-24.371c47.793-46.17 100.966-68.233 137.634-78.648 41.093-11.671 71.01-11.677 71.314-11.672.118-.001.237-.002.355-.006.434-.022 44.197-1.562 97.747 17.503 3.911 1.39 8.206-.649 9.596-4.557 1.391-3.909-.649-8.204-4.557-9.596-55.097-19.617-99.616-18.501-103.226-18.368h-.012c-2.93 0-33.017.302-74.774 12.088-37.949 10.712-92.74 33.323-142.383 80.429l-21-32.428c-4.426-6.834-3.217-15.777 2.874-21.264 55.864-50.323 116.809-73.983 158.097-84.97 44.322-11.793 76.142-11.928 77.26-11.928h.028c.027-.001.058-.001.085 0 .28.003 32.39-.019 77.289 11.928 41.288 10.987 102.232 34.646 158.097 84.97 6.09 5.488 7.299 14.431 2.873 21.265z"/><path d="m282.494 165.106c-30.465 0-55.25 24.785-55.25 55.249 0 30.465 24.785 55.25 55.25 55.25s55.25-24.785 55.25-55.25c0-30.464-24.785-55.249-55.25-55.249zm0 95.475c-22.18 0-40.226-18.045-40.226-40.227 0-22.18 18.046-40.225 40.226-40.225s40.226 18.045 40.226 40.225c0 22.182-18.045 40.227-40.226 40.227z"/><path d="m366.079 264.049c-2.233-3.496-6.878-4.521-10.374-2.288-3.497 2.233-4.521 6.878-2.288 10.375l7.214 11.298c1.433 2.244 3.86 3.469 6.339 3.469 1.384 0 2.783-.382 4.036-1.182 3.497-2.233 4.521-6.878 2.288-10.375z"/><path d="m393.375 201.771c-3.52-2.202-8.153-1.131-10.352 2.388l-7.106 11.366c-2.199 3.517-1.131 8.152 2.387 10.351 1.239.775 2.615 1.143 3.975 1.143 2.504 0 4.952-1.251 6.377-3.531l7.106-11.367c2.2-3.516 1.131-8.151-2.387-10.35z"/><path d="m149.85 193.372-9.53 9.428c-2.949 2.918-2.974 7.674-.057 10.623 1.469 1.486 3.404 2.229 5.34 2.229 1.909 0 3.818-.723 5.283-2.171l9.53-9.428c2.949-2.918 2.974-7.674.057-10.623-2.918-2.951-7.674-2.976-10.623-.058z"/><path d="m208.754 246.058c3.861-1.518 5.76-5.878 4.242-9.74l-4.906-12.475c-1.518-3.861-5.881-5.76-9.74-4.241-3.861 1.518-5.76 5.878-4.242 9.74l4.906 12.475c1.163 2.958 3.995 4.764 6.992 4.764.916 0 1.846-.168 2.748-.523z"/><path d="m245.3 323.343c2.228 0 4.434-.987 5.916-2.876 2.56-3.265 1.989-7.986-1.275-10.547l-10.548-8.273c-3.264-2.561-7.986-1.99-10.546 1.274-2.56 3.265-1.989 7.986 1.275 10.547l10.548 8.273c1.374 1.08 3.007 1.602 4.63 1.602z"/><path d="m319.77 296.466c-3.237-2.596-7.965-2.073-10.559 1.165l-8.382 10.462c-2.594 3.238-2.073 7.965 1.165 10.559 1.385 1.111 3.044 1.65 4.692 1.65 2.202 0 4.383-.963 5.867-2.815l8.382-10.462c2.594-3.238 2.073-7.965-1.165-10.559z"/><path d="m255.214 413.052-10.548-8.273c-3.264-2.561-7.986-1.99-10.546 1.275s-1.99 7.986 1.275 10.547l10.548 8.273c1.375 1.079 3.009 1.601 4.631 1.601 2.228 0 4.434-.987 5.916-2.876 2.559-3.265 1.989-7.987-1.276-10.547z"/><path d="m222.888 346.945c-3.298-2.519-8.011-1.887-10.529 1.411l-8.136 10.654c-2.518 3.296-1.887 8.011 1.41 10.529 1.362 1.04 2.964 1.542 4.554 1.542 2.261 0 4.497-1.017 5.975-2.953l8.136-10.654c2.518-3.296 1.887-8.011-1.41-10.529z"/></g></g></svg>